<svg width="150" height="19" viewBox="0 0 150 19" fill="none" xmlns="http://www.w3.org/2000/svg">
<g clip-path="url(#clip0_1_108)">
<path d="M14.0625 11.4375H4.0875V8.9625H16.95C16.6125 7.9125 15.525 6.9375 13.6125 6.9375H4.275C2.1375 6.9375 0.9 7.725 0.9 9.45V11.2875C0.9 12.7875 2.175 13.65 4.05 13.65H14.1375V16.275H0.5625C0.9 17.7 1.9875 18.45 3.9375 18.45H14.1C16.2375 18.45 17.2875 17.625 17.2875 15.8625V14.025C17.2875 12.4125 16.05 11.55 14.0625 11.4375Z" fill="white"/>
<path d="M34.425 6.97501H22.125V18.4875H25.6125V14.0625H34.6875C37.2 14.0625 38.5875 13.2 38.5875 11.175V9.90001C38.55 8.02501 36.975 6.97501 34.425 6.97501ZM35.55 10.65C35.55 11.475 35.4 11.925 34.05 11.925H25.6125L25.65 8.92501H33.9C35.4 8.92501 35.5875 9.37501 35.5875 10.1625V10.65H35.55Z" fill="white"/>
<path d="M48.7125 6.48749L46.6125 9.07499L50.175 13.9875H42.75L40.9125 15.9375H51.6375L53.475 18.4875H57.6L48.7125 6.48749Z" fill="white"/>
<path d="M64.275 8.9625H77.325C76.9875 7.6125 75.675 6.9375 73.8 6.9375H64.05C62.3625 6.9375 60.75 7.6125 60.75 9.45V15.9C60.75 17.7375 62.3625 18.4125 64.05 18.4125H73.9125C76.1625 18.4125 76.95 17.775 77.325 16.2375H64.275V8.9625Z" fill="white"/>
<path d="M85.6125 16.3125V12.7875H92.625V10.8375H82.0875V18.4875H97.65V16.3125H85.6125Z" fill="white"/>
<path d="M98.175 6.97501H82.4625V9.00001H98.175V6.97501Z" fill="white"/>
<path d="M107.85 6.97501H102.375L108.825 11.7C109.763 11.0625 110.85 10.3875 111.825 9.82501L107.85 6.97501Z" fill="white"/>
<path d="M115.8 12.8625C114.863 13.5 113.925 14.2125 113.025 14.8875L117.9 18.45H123.413L115.8 12.8625Z" fill="white"/>
<path d="M149.625 0.262512C119.625 1.98751 105.75 14.8125 102.638 17.85L102 18.45H107.55C122.55 3.41251 144.113 0.750012 149.625 0.262512Z" fill="white"/>
</g>
<defs>
<clipPath id="clip0_1_108">
<rect width="150" height="18.75" fill="white"/>
</clipPath>
</defs>
</svg>
